<?xml version="1.0" encoding="UTF-8"?>
<svg version="1.1" xmlns="http://www.w3.org/2000/svg" width="236" height="107">
<path d="M0 0 C77.88 0 155.76 0 236 0 C236 35.31 236 70.62 236 107 C158.12 107 80.24 107 0 107 C0 71.69 0 36.38 0 0 Z " fill="#FCFCFC" transform="translate(0,0)"/>
<path d="M0 0 C0.859422 -0.00861557 1.71884399 -0.01723114 2.60430908 -0.02610779 C5.43622262 -0.04874643 8.26714412 -0.0420291 11.09912109 -0.03295898 C13.07962333 -0.03819808 15.06012306 -0.04447561 17.0406189 -0.05174255 C21.19158667 -0.0621449 25.34221166 -0.05759149 29.49316406 -0.04296875 C34.78558949 -0.02584214 40.07692298 -0.04920133 45.36922646 -0.08445835 C49.46165014 -0.10654186 53.55381742 -0.10496346 57.6462822 -0.09669304 C59.59571906 -0.09587833 61.54517568 -0.10264892 63.49455643 -0.11746407 C80.26194988 -0.2253013 91.92994446 2.65229254 104.35986328 14.55639648 C106.47411557 16.67015685 108.55131614 18.81508066 110.62255859 20.97094727 C116.81091562 27.29423177 122.93645454 32.55079714 130.24755859 37.53344727 C136.19888066 41.94146039 140.52357036 46.13873044 142.24755859 53.53344727 C142.97143329 60.93860216 143.1830073 67.02121667 139.24755859 73.53344727 C133.32698425 78.49020719 126.8442312 79.9132809 119.24755859 79.53344727 C119.16505859 80.27594727 119.08255859 81.01844727 118.99755859 81.78344727 C118.24755859 84.53344727 118.24755859 84.53344727 114.24755859 88.53344727 C129.42755859 88.86344727 144.60755859 89.19344727 160.24755859 89.53344727 C160.24755859 91.18344727 160.24755859 92.83344727 160.24755859 94.53344727 C158.53322885 96.24777701 156.35812489 95.65834012 154.07172823 95.66719067 C153.32437017 95.66495995 152.57701211 95.66272923 151.80700684 95.66043091 C151.01873237 95.6619909 150.23045791 95.66355089 149.41829634 95.66515815 C146.75654746 95.66917133 144.09485485 95.66597729 141.43310547 95.6628418 C139.53312649 95.6641957 137.63314777 95.66597557 135.73316956 95.66815186 C130.55770034 95.67272753 125.38225097 95.67093608 120.20678139 95.66777277 C114.80334035 95.66524986 109.39990106 95.66758651 103.99645996 95.66915894 C94.92048842 95.67098083 85.844525 95.66857379 76.76855469 95.66381836 C66.25929027 95.6583757 55.75004525 95.66013834 45.24078131 95.66564476 C36.23529821 95.67017532 27.22982097 95.67082673 18.2243371 95.6682061 C12.838067 95.666643 7.45180602 95.66645043 2.0655365 95.66974258 C-2.99703446 95.67262047 -8.05958029 95.67064714 -13.12214851 95.66484833 C-14.98584514 95.66352028 -16.84954386 95.66391559 -18.71323967 95.66611099 C-21.24615205 95.66882076 -23.77898256 95.66544352 -26.31188965 95.66043091 C-27.05924771 95.66266163 -27.80660577 95.66489235 -28.57661104 95.66719067 C-33.63829156 95.64759712 -33.63829156 95.64759712 -34.75244141 94.53344727 C-34.75244141 92.88344727 -34.75244141 91.23344727 -34.75244141 89.53344727 C-11.98244141 89.03844727 -11.98244141 89.03844727 11.24755859 88.53344727 C9.92755859 86.88344727 8.60755859 85.23344727 7.24755859 83.53344727 C6.49755859 81.22094727 6.49755859 81.22094727 6.24755859 79.53344727 C5.07 79.5856543 5.07 79.5856543 3.86865234 79.63891602 C-2.49269979 79.80282816 -7.26288762 79.89439857 -12.75244141 76.53344727 C-15.56604441 73.84473003 -17.50646832 71.27136651 -18.75244141 67.53344727 C-18.75244141 65.22344727 -18.75244141 62.91344727 -18.75244141 60.53344727 C-26.67244141 60.53344727 -34.59244141 60.53344727 -42.75244141 60.53344727 C-43.08244141 58.88344727 -43.41244141 57.23344727 -43.75244141 55.53344727 C-42.75244141 54.53344727 -42.75244141 54.53344727 -39.97680664 54.41992188 C-38.76710205 54.42515869 -37.55739746 54.43039551 -36.31103516 54.43579102 C-35.00585938 54.43901367 -33.70068359 54.44223633 -32.35595703 54.44555664 C-30.96728451 54.45391325 -29.57861263 54.46237822 -28.18994141 54.47094727 C-26.79736485 54.47596061 -25.40478659 54.4805238 -24.01220703 54.48461914 C-20.5922427 54.49645293 -17.17236297 54.51293846 -13.75244141 54.53344727 C-12.48781713 57.06269582 -12.60938826 59.02331431 -12.50244141 61.84594727 C-12.15786766 65.49747183 -11.82093923 67.41112973 -10.00244141 70.65844727 C-4.89734086 73.60369758 0.44641306 73.4400174 6.24755859 73.53344727 C6.68261719 72.11999023 6.68261719 72.11999023 7.12646484 70.67797852 C8.33560921 67.28647601 9.48776291 65.79146191 12.24755859 63.53344727 C17.42754427 61.80678537 23.04505737 61.6237185 28.12255859 63.72094727 C30.56824822 65.80697665 32.44784726 67.86720825 34.24755859 70.53344727 C34.24755859 71.52344727 34.24755859 72.51344727 34.24755859 73.53344727 C53.05755859 73.53344727 71.86755859 73.53344727 91.24755859 73.53344727 C91.90755859 71.55344727 92.56755859 69.57344727 93.24755859 67.53344727 C96.63882163 64.40305061 99.77952142 61.70615752 104.43505859 61.15844727 C109.07588994 61.61492248 112.4292811 62.8675328 116.24755859 65.53344727 C118.57631346 68.51716444 119.24755859 69.74935582 119.24755859 73.53344727 C127.95102923 73.00582772 127.95102923 73.00582772 135.24755859 68.53344727 C135.4021741 66.12204006 135.47926101 63.75894156 135.49755859 61.34594727 C135.52333984 60.03239258 135.54912109 58.71883789 135.57568359 57.36547852 C135.21770399 53.18478819 134.59170642 50.99933454 132.24755859 47.53344727 C130.0046481 45.7228701 127.81962052 44.12875071 125.43505859 42.53344727 C116.67761593 36.37748927 109.38443723 28.92433554 102.05102539 21.18774414 C92.95682796 11.75069837 85.88109848 7.49050056 72.77880859 7.21704102 C71.92638077 7.19598801 71.07395294 7.174935 70.19569397 7.15324402 C67.37974837 7.08623198 64.56373521 7.02738628 61.74755859 6.97094727 C60.3037532 6.94167145 60.3037532 6.94167145 58.83078003 6.9118042 C52.69050138 6.79031988 46.55004482 6.68547715 40.40936279 6.58673096 C37.25389309 6.53355402 34.0986546 6.47252956 30.94335938 6.40991211 C25.86845956 6.31178553 20.79386124 6.24190756 15.71826172 6.19241333 C13.78568743 6.16984202 11.85319343 6.13870798 9.92089844 6.09884644 C7.21822896 6.04525317 4.51709118 6.02365215 1.81396484 6.01000977 C1.01692642 5.98738571 0.219888 5.96476166 -0.6013031 5.94145203 C-4.63326833 5.956732 -6.51869659 6.35296655 -9.74804688 8.84643555 C-12.31945171 12.29355876 -12.38197629 14.52078177 -12.43994141 18.78344727 C-12.48432676 21.03541988 -12.57317289 23.28818258 -12.75244141 25.53344727 C-15.20519281 26.75982297 -16.80301951 26.64760041 -19.54150391 26.63110352 C-20.48251953 26.62788086 -21.42353516 26.6246582 -22.39306641 26.62133789 C-23.87033203 26.60876953 -23.87033203 26.60876953 -25.37744141 26.59594727 C-26.37001953 26.59143555 -27.36259766 26.58692383 -28.38525391 26.58227539 C-30.84104301 26.57046871 -33.29671245 26.55400127 -35.75244141 26.53344727 C-36.13462908 24.87730069 -36.46639242 23.20887702 -36.75244141 21.53344727 C-35.75244141 20.53344727 -35.75244141 20.53344727 -31.93603516 20.43579102 C-30.35397459 20.44246638 -28.77192982 20.45442851 -27.18994141 20.47094727 C-26.38363281 20.47545898 -25.57732422 20.4799707 -24.74658203 20.48461914 C-22.74850384 20.49644209 -20.75046358 20.51437813 -18.75244141 20.53344727 C-18.79385254 19.914375 -18.83526367 19.29530273 -18.87792969 18.6574707 C-19.21965572 12.65649349 -18.35403588 9.36716617 -14.75244141 4.53344727 C-9.79716442 0.40778955 -6.16863401 -0.05024795 0 0 Z " fill="#494E56" transform="translate(71.75244140625,4.466552734375)"/>
<path d="M0 0 C57.09 0 114.18 0 173 0 C173 32.01 173 64.02 173 97 C171.68 97.33 170.36 97.66 169 98 C169 96.68 169 95.36 169 94 C153.49 94 137.98 94 122 94 C123.65 91.69 125.3 89.38 127 87 C127.495 85.515 127.495 85.515 128 84 C131.29657062 83.04414505 134.55354119 82.35094996 137.921875 81.71484375 C142.96323478 80.63058071 145.66238671 79.16564712 149 75 C151.2594612 68.22161641 151.0943572 59.65349709 148.4375 53 C146.12662636 48.61339426 142.97101698 45.87472395 139 43 C129.45995616 35.97884507 120.9378633 28.13494101 112.72973633 19.60522461 C102.57694763 9.21955183 92.36582103 5.62986754 77.92852783 5.41453552 C75.10460391 5.39376202 72.28102566 5.39185191 69.45703125 5.390625 C67.47733725 5.37562309 65.49765567 5.35889177 63.51799011 5.34051514 C58.34121078 5.29705515 53.16460023 5.27689009 47.9876709 5.26177979 C42.69154976 5.24213134 37.39560887 5.20017026 32.09960938 5.16015625 C21.7331288 5.08508568 11.36668902 5.03465439 1 5 C0.67 3.35 0.34 1.7 0 0 Z " fill="#FCFCFC" transform="translate(63,0)"/>
<path d="M0 0 C1.20970459 0.00523682 2.41940918 0.01047363 3.66577148 0.01586914 C4.97094727 0.0190918 6.27612305 0.02231445 7.62084961 0.02563477 C9.00952213 0.03399138 10.39819401 0.04245634 11.78686523 0.05102539 C13.17944179 0.05603873 14.57202005 0.06060193 15.96459961 0.06469727 C19.38456394 0.07653105 22.80444367 0.09301659 26.22436523 0.11352539 C27.48898951 2.64277394 27.36741838 4.60339243 27.47436523 7.42602539 C27.81893898 11.07754995 28.15586741 12.99120785 29.97436523 16.23852539 C35.07946578 19.18377571 40.4232197 19.02009552 46.22436523 19.11352539 C46.5144043 18.1712207 46.80444336 17.22891602 47.10327148 16.25805664 C48.31241585 12.86655414 49.46456955 11.37154004 52.22436523 9.11352539 C57.40435091 7.3868635 63.02186401 7.20379662 68.09936523 9.30102539 C71.67393715 12.34992496 73.88020112 14.73686894 75.03686523 19.36352539 C75.09874023 20.27102539 75.16061523 21.17852539 75.22436523 22.11352539 C74.72936523 22.60852539 74.72936523 22.60852539 74.22436523 23.11352539 C74.12124023 24.02102539 74.01811523 24.92852539 73.91186523 25.86352539 C73.22436523 29.11352539 73.22436523 29.11352539 69.22436523 34.11352539 C91.66436523 34.11352539 114.10436523 34.11352539 137.22436523 34.11352539 C135.24436523 32.13352539 135.24436523 32.13352539 133.22436523 30.11352539 C132.97436523 27.36352539 132.97436523 27.36352539 133.22436523 25.11352539 C136.4734454 25.4745343 137.87952275 25.746435 140.16186523 28.17602539 C142.106789 30.39256696 142.106789 30.39256696 145.09936523 30.42602539 C148.25559384 30.1480929 148.25559384 30.1480929 151.47436523 29.55102539 C154.22436523 29.11352539 154.22436523 29.11352539 156.22436523 30.11352539 C155.56436523 31.43352539 154.90436523 32.75352539 154.22436523 34.11352539 C169.40436523 34.44352539 184.58436523 34.77352539 200.22436523 35.11352539 C200.22436523 36.76352539 200.22436523 38.41352539 200.22436523 40.11352539 C198.51003549 41.82785514 196.33493153 41.23841825 194.04853487 41.2472688 C193.30117681 41.24503807 192.55381875 41.24280735 191.78381348 41.24050903 C190.99553901 41.24206902 190.20726455 41.24362901 189.39510298 41.24523628 C186.7333541 41.24924946 184.07166149 41.24605541 181.40991211 41.24291992 C179.50993313 41.24427382 177.60995441 41.24605369 175.7099762 41.24822998 C170.53450698 41.25280566 165.35905761 41.25101421 160.18358803 41.24785089 C154.78014699 41.24532798 149.3767077 41.24766464 143.9732666 41.24923706 C134.89729506 41.25105896 125.82133164 41.24865192 116.74536133 41.24389648 C106.23609691 41.23845383 95.72685189 41.24021647 85.21758795 41.24572289 C76.21210485 41.25025345 67.20662761 41.25090485 58.20114374 41.24828422 C52.81487364 41.24672113 47.42861267 41.24652856 42.04234314 41.24982071 C36.97977218 41.25269859 31.91722636 41.25072527 26.85465813 41.24492645 C24.9909615 41.24359841 23.12726278 41.24399372 21.26356697 41.24618912 C18.73065459 41.24889889 16.19782408 41.24552164 13.66491699 41.24050903 C12.91755893 41.24273975 12.17020087 41.24497048 11.4001956 41.2472688 C6.33851509 41.22767524 6.33851509 41.22767524 5.22436523 40.11352539 C5.22436523 38.46352539 5.22436523 36.81352539 5.22436523 35.11352539 C27.99436523 34.61852539 27.99436523 34.61852539 51.22436523 34.11352539 C49.90436523 32.46352539 48.58436523 30.81352539 47.22436523 29.11352539 C46.47436523 26.80102539 46.47436523 26.80102539 46.22436523 25.11352539 C45.04680664 25.16573242 45.04680664 25.16573242 43.84545898 25.21899414 C37.48410685 25.38290628 32.71391902 25.47447669 27.22436523 22.11352539 C24.41076223 19.42480816 22.47033832 16.85144464 21.22436523 13.11352539 C21.22436523 10.80352539 21.22436523 8.49352539 21.22436523 6.11352539 C13.30436523 6.11352539 5.38436523 6.11352539 -2.77563477 6.11352539 C-3.10563477 4.46352539 -3.43563477 2.81352539 -3.77563477 1.11352539 C-2.77563477 0.11352539 -2.77563477 0.11352539 0 0 Z " fill="#5C6169" transform="translate(31.775634765625,58.886474609375)"/>
<path d="M0 0 C0.859422 -0.00861557 1.71884399 -0.01723114 2.60430908 -0.02610779 C5.43622262 -0.04874643 8.26714412 -0.0420291 11.09912109 -0.03295898 C13.07962333 -0.03819808 15.06012306 -0.04447561 17.0406189 -0.05174255 C21.19158667 -0.0621449 25.34221166 -0.05759149 29.49316406 -0.04296875 C34.78558949 -0.02584214 40.07692298 -0.04920133 45.36922646 -0.08445835 C49.46165014 -0.10654186 53.55381742 -0.10496346 57.6462822 -0.09669304 C59.59571906 -0.09587833 61.54517568 -0.10264892 63.49455643 -0.11746407 C80.26194988 -0.2253013 91.92994446 2.65229254 104.35986328 14.55639648 C106.47411557 16.67015685 108.55131614 18.81508066 110.62255859 20.97094727 C116.81091562 27.29423177 122.93645454 32.55079714 130.24755859 37.53344727 C136.19888066 41.94146039 140.52357036 46.13873044 142.24755859 53.53344727 C142.97002184 60.92416326 143.20189109 67.04237317 139.24755859 73.53344727 C134.12305807 77.56762853 130.39712605 78.6801521 123.99755859 78.59594727 C122.65951172 78.58241211 122.65951172 78.58241211 121.29443359 78.56860352 C120.61896484 78.55700195 119.94349609 78.54540039 119.24755859 78.53344727 C120.17568359 78.13125977 120.17568359 78.13125977 121.12255859 77.72094727 C123.5470819 76.57787878 123.5470819 76.57787878 125.24755859 73.53344727 C127.37646484 72.40063477 127.37646484 72.40063477 129.81005859 71.40844727 C132.75950097 70.3260884 132.75950097 70.3260884 135.24755859 68.53344727 C135.4021741 66.12204006 135.47926101 63.75894156 135.49755859 61.34594727 C135.52333984 60.03239258 135.54912109 58.71883789 135.57568359 57.36547852 C135.21770399 53.18478819 134.59170642 50.99933454 132.24755859 47.53344727 C130.0046481 45.7228701 127.81962052 44.12875071 125.43505859 42.53344727 C116.67761593 36.37748927 109.38443723 28.92433554 102.05102539 21.18774414 C92.95682796 11.75069837 85.88109848 7.49050056 72.77880859 7.21704102 C71.92638077 7.19598801 71.07395294 7.174935 70.19569397 7.15324402 C67.37974837 7.08623198 64.56373521 7.02738628 61.74755859 6.97094727 C60.3037532 6.94167145 60.3037532 6.94167145 58.83078003 6.9118042 C52.69050138 6.79031988 46.55004482 6.68547715 40.40936279 6.58673096 C37.25389309 6.53355402 34.0986546 6.47252956 30.94335938 6.40991211 C25.86845956 6.31178553 20.79386124 6.24190756 15.71826172 6.19241333 C13.78568743 6.16984202 11.85319343 6.13870798 9.92089844 6.09884644 C7.21822896 6.04525317 4.51709118 6.02365215 1.81396484 6.01000977 C1.01692642 5.98738571 0.219888 5.96476166 -0.6013031 5.94145203 C-4.63326833 5.956732 -6.51869659 6.35296655 -9.74804688 8.84643555 C-12.31945171 12.29355876 -12.38197629 14.52078177 -12.43994141 18.78344727 C-12.48432676 21.03541988 -12.57317289 23.28818258 -12.75244141 25.53344727 C-15.20519281 26.75982297 -16.80301951 26.64760041 -19.54150391 26.63110352 C-20.48251953 26.62788086 -21.42353516 26.6246582 -22.39306641 26.62133789 C-23.87033203 26.60876953 -23.87033203 26.60876953 -25.37744141 26.59594727 C-26.37001953 26.59143555 -27.36259766 26.58692383 -28.38525391 26.58227539 C-30.84104301 26.57046871 -33.29671245 26.55400127 -35.75244141 26.53344727 C-36.13462908 24.87730069 -36.46639242 23.20887702 -36.75244141 21.53344727 C-35.75244141 20.53344727 -35.75244141 20.53344727 -31.93603516 20.43579102 C-30.35397459 20.44246638 -28.77192982 20.45442851 -27.18994141 20.47094727 C-26.38363281 20.47545898 -25.57732422 20.4799707 -24.74658203 20.48461914 C-22.74850384 20.49644209 -20.75046358 20.51437813 -18.75244141 20.53344727 C-18.79385254 19.914375 -18.83526367 19.29530273 -18.87792969 18.6574707 C-19.21965572 12.65649349 -18.35403588 9.36716617 -14.75244141 4.53344727 C-9.79716442 0.40778955 -6.16863401 -0.05024795 0 0 Z " fill="#4B5058" transform="translate(71.75244140625,4.466552734375)"/>
<path d="M0 0 C3.24908017 0.36100891 4.65515751 0.63290961 6.9375 3.0625 C8.88242376 5.27904157 8.88242376 5.27904157 11.875 5.3125 C15.03122861 5.03456751 15.03122861 5.03456751 18.25 4.4375 C21 4 21 4 23 5 C22.34 6.32 21.68 7.64 21 9 C36.18 9.33 51.36 9.66 67 10 C67 11.65 67 13.3 67 15 C3.31 15 -60.38 15 -126 15 C-126 14.67 -126 14.34 -126 14 C-107.52 13.67 -89.04 13.34 -70 13 C-69.34 11.68 -68.68 10.36 -68 9 C-67.01 9.33 -66.02 9.66 -65 10 C-62.77598234 10.06140915 -60.55000586 10.05819682 -58.32543945 10.02172852 C-57.652005 10.01212097 -56.97857056 10.00251343 -56.284729 9.99261475 C-54.06080563 9.95965754 -51.83708072 9.91931291 -49.61328125 9.87890625 C-48.070579 9.85460192 -46.52786942 9.83075851 -44.9851532 9.80735779 C-40.92609306 9.74454798 -36.86716271 9.67547257 -32.80822754 9.60510254 C-28.66583158 9.53439106 -24.52334364 9.46959094 -20.38085938 9.40429688 C-12.2538044 9.27532453 -4.12687702 9.13973444 4 9 C3.01773438 8.09507813 3.01773438 8.09507813 2.015625 7.171875 C0 5 0 5 -0.25 2.25 C-0.1675 1.5075 -0.085 0.765 0 0 Z " fill="#434850" transform="translate(165,84)"/>
<path d="M0 0 C8.50703891 0.08376734 13.57933861 2.91606485 19.6875 8.625 C28.74924195 18.32191078 28.74924195 18.32191078 29.22265625 24.0859375 C29 26.375 29 26.375 28 27.375 C25.49075847 27.47587212 23.00963616 27.51472032 20.5 27.5078125 C19.74912109 27.50876923 18.99824219 27.50972595 18.22460938 27.51071167 C16.63411373 27.51139338 15.04361533 27.50953972 13.453125 27.50537109 C11.01035345 27.50002267 8.56776579 27.50531634 6.125 27.51171875 C4.58333293 27.51105797 3.04166597 27.5097768 1.5 27.5078125 C0.76458984 27.50983673 0.02917969 27.51186096 -0.72851562 27.51394653 C-5.88504839 27.48995161 -5.88504839 27.48995161 -7 26.375 C-7.09959621 24.53340977 -7.13080411 22.68803033 -7.1328125 20.84375 C-7.13410156 19.72355469 -7.13539063 18.60335937 -7.13671875 17.44921875 C-7.13285156 16.26972656 -7.12898437 15.09023438 -7.125 13.875 C-7.12886719 12.69550781 -7.13273438 11.51601563 -7.13671875 10.30078125 C-7.13542969 9.18058594 -7.13414062 8.06039063 -7.1328125 6.90625 C-7.13168457 5.87048828 -7.13055664 4.83472656 -7.12939453 3.76757812 C-6.88017405 -0.84064958 -4.03524365 0.12143094 0 0 Z " fill="#484E56" transform="translate(149,18.625)"/>
<path d="M0 0 C1.49891281 0.03330917 1.49891281 0.03330917 3.02810669 0.06729126 C4.16883636 0.06804657 5.30956604 0.06880188 6.48486328 0.06958008 C8.30861984 0.14699936 8.30861984 0.14699936 10.16921997 0.22598267 C11.42590485 0.24013214 12.68258972 0.25428162 13.97735596 0.26885986 C17.30439148 0.3152788 20.62445314 0.40489294 23.94955444 0.51589966 C27.34768664 0.61858684 30.74654285 0.66394919 34.14578247 0.71426392 C40.80394786 0.82440662 47.45883795 0.99164042 54.11453247 1.20254517 C55.5305481 3.79043579 55.5305481 3.79043579 56.94656372 6.37832642 C58.24053396 8.54277591 58.24053396 8.54277591 61.11453247 11.20254517 C38.01453247 11.20254517 14.91453247 11.20254517 -8.88546753 11.20254517 C-2.88546753 1.20254517 -2.88546753 1.20254517 0 0 Z " fill="#F8F9F9" transform="translate(108.88546752929688,82.79745483398438)"/>
<path d="M0 0 C1.20970459 0.00523682 2.41940918 0.01047363 3.66577148 0.01586914 C4.97094727 0.0190918 6.27612305 0.02231445 7.62084961 0.02563477 C9.00952213 0.03399138 10.39819401 0.04245634 11.78686523 0.05102539 C13.17944179 0.05603873 14.57202005 0.06060193 15.96459961 0.06469727 C19.38456394 0.07653105 22.80444367 0.09301659 26.22436523 0.11352539 C27.48898951 2.64277394 27.36741838 4.60339243 27.47436523 7.42602539 C27.81893898 11.07754995 28.15586741 12.99120785 29.97436523 16.23852539 C35.07946578 19.18377571 40.4232197 19.02009552 46.22436523 19.11352539 C46.88436523 17.13352539 47.54436523 15.15352539 48.22436523 13.11352539 C50.42222186 16.41031034 52.08528718 19.04726028 52.59936523 22.98852539 C53.24238687 26.20363358 54.08356916 27.69349505 56.22436523 30.11352539 C55.56436523 30.11352539 54.90436523 30.11352539 54.22436523 30.11352539 C53.89436523 30.77352539 53.56436523 31.43352539 53.22436523 32.11352539 C52.23436523 32.44352539 51.24436523 32.77352539 50.22436523 33.11352539 C46.22436523 27.36352539 46.22436523 27.36352539 46.22436523 25.11352539 C45.04680664 25.16573242 45.04680664 25.16573242 43.84545898 25.21899414 C37.48410685 25.38290628 32.71391902 25.47447669 27.22436523 22.11352539 C24.41076223 19.42480816 22.47033832 16.85144464 21.22436523 13.11352539 C21.22436523 10.80352539 21.22436523 8.49352539 21.22436523 6.11352539 C13.30436523 6.11352539 5.38436523 6.11352539 -2.77563477 6.11352539 C-3.10563477 4.46352539 -3.43563477 2.81352539 -3.77563477 1.11352539 C-2.77563477 0.11352539 -2.77563477 0.11352539 0 0 Z " fill="#4C5059" transform="translate(31.775634765625,58.886474609375)"/>
<path d="M0 0 C1.33278992 0.00303635 1.33278992 0.00303635 2.69250488 0.00613403 C3.5987561 0.00517731 4.50500732 0.00422058 5.4387207 0.00323486 C7.35876535 0.002553 9.27881229 0.00440771 11.19885254 0.00857544 C14.14861192 0.01392361 17.09821902 0.00863066 20.04797363 0.00222778 C21.90865105 0.00288856 23.76932838 0.00416972 25.63000488 0.00613403 C26.51853149 0.0041098 27.40705811 0.00208557 28.32250977 0 C34.546305 0.02399665 34.546305 0.02399665 35.66125488 1.13894653 C35.73369541 3.15858852 35.74502676 5.18061777 35.72375488 7.20144653 C35.71473145 8.3061731 35.70570801 9.41089966 35.69641113 10.54910278 C35.68480957 11.40375122 35.67320801 12.25839966 35.66125488 13.13894653 C34.00510831 13.5211342 32.33668464 13.85289755 30.66125488 14.13894653 C30.16625488 13.64394653 30.16625488 13.64394653 29.66125488 13.13894653 C29.66125488 10.49894653 29.66125488 7.85894653 29.66125488 5.13894653 C17.78125488 5.13894653 5.90125488 5.13894653 -6.33874512 5.13894653 C-6.66874512 3.81894653 -6.99874512 2.49894653 -7.33874512 1.13894653 C-5.41617337 -0.78362522 -2.55789404 0.00986229 0 0 Z " fill="#414650" transform="translate(23.3387451171875,39.861053466796875)"/>
<path d="M0 0 C3 1.9375 3 1.9375 5 5 C5.32858528 8.90879577 5.12789528 12.53840789 2.6796875 15.7109375 C-0.26004214 17.96700908 -3.35723986 18.34794395 -7 18 C-10.39036303 15.61953234 -11.69320091 13.92039728 -13 10 C-13 6.37396827 -12.20839025 4.83935889 -10 2 C-6.24952518 -0.50031654 -4.44143734 -0.53603554 0 0 Z " fill="#EBECED" transform="translate(96,72)"/>
<path d="M0 0 C4.25331827 0.86802414 6.18199992 2.40158324 9.0625 5.625 C9.83402986 9.94556721 9.58997866 11.81619939 7.1875 15.5 C4.68795713 17.99954287 3.74074042 18.53456794 0.25 19 C-2.9375 18.625 -2.9375 18.625 -5.8125 16.625 C-8.18016331 13.2824165 -8.69476358 11.56486585 -8.421875 7.5625 C-7.28464708 3.01358834 -4.4078842 0.9378477 0 0 Z " fill="#F1F3F3" transform="translate(176.9375,71.375)"/>
<path d="M0 0 C5.0436812 -0.54039441 7.96063848 -0.4683191 12.125 2.5625 C15.8106301 5.62900251 19.29359865 9.02241014 22 13 C22 13.66 22 14.32 22 15 C14.74 15 7.48 15 0 15 C0 10.05 0 5.1 0 0 Z " fill="#F9FAFA" transform="translate(148,25)"/>
<path d="M0 0 C1.12093552 0.00015106 2.24187103 0.00030212 3.39677429 0.00045776 C4.60622208 0.01078033 5.81566986 0.02110291 7.06176758 0.03173828 C8.91986809 0.03598312 8.91986809 0.03598312 10.81550598 0.04031372 C14.10517969 0.04961892 17.39465746 0.06758287 20.68426514 0.08972168 C24.04249677 0.11019808 27.4007571 0.11931926 30.7590332 0.12939453 C37.34569856 0.15146807 43.93223266 0.18495556 50.51879883 0.22705078 C50.51879883 1.54705078 50.51879883 2.86705078 50.51879883 4.22705078 C43.12149123 4.27334497 35.72421476 4.30890505 28.32679176 4.33067513 C24.89204424 4.34112248 21.45739565 4.35529884 18.02270508 4.37792969 C14.07610245 4.40377141 10.1295402 4.41351571 6.18286133 4.42236328 C4.94637848 4.43268585 3.70989563 4.44300842 2.4359436 4.4536438 C1.2949118 4.45379486 0.15388 4.45394592 -1.02172852 4.45410156 C-2.02988617 4.45854279 -3.03804382 4.46298401 -4.07675171 4.46755981 C-6.48120117 4.22705078 -6.48120117 4.22705078 -8.48120117 2.22705078 C-5.09450578 -0.03074615 -3.96429266 -0.01781705 0 0 Z " fill="#444A54" transform="translate(112.481201171875,78.77294921875)"/>
<path d="M0 0 C2.84834879 4.27252318 2.4925799 7.98819501 2 13 C0.25894517 18.2231645 -2.21915038 20.36565429 -7 23 C-10.13026203 24.01060871 -12.97211501 24.10563007 -16.25 24.0625 C-17.14203125 24.05347656 -18.0340625 24.04445313 -18.953125 24.03515625 C-19.62859375 24.02355469 -20.3040625 24.01195313 -21 24 C-20.38125 23.731875 -19.7625 23.46375 -19.125 23.1875 C-16.7004767 22.04443152 -16.7004767 22.04443152 -15 19 C-12.74349546 17.89279721 -10.44629531 17.04236074 -8.09375 16.16015625 C-5.52049346 14.73430328 -4.96193148 13.75191738 -4 11 C-3.55188863 8.64435404 -3.55188863 8.64435404 -3.375 6.25 C-3.30023438 5.45078125 -3.22546875 4.6515625 -3.1484375 3.828125 C-3.09945312 3.22484375 -3.05046875 2.6215625 -3 2 C-2.34 2.33 -1.68 2.66 -1 3 C-0.67 2.01 -0.34 1.02 0 0 Z " fill="#464B53" transform="translate(212,59)"/>
<path d="M0 0 C1.32 0.66 2.64 1.32 4 2 C4 3.32 4 4.64 4 6 C4.66 4.68 5.32 3.36 6 2 C6 4.31 6 6.62 6 9 C5.01 9 4.02 9 3 9 C2.34 9.99 1.68 10.98 1 12 C0.505 10.02 0.505 10.02 0 8 C-18.81 8 -37.62 8 -57 8 C-57 7.67 -57 7.34 -57 7 C-28.785 6.505 -28.785 6.505 0 6 C0 5.34 0 4.68 0 4 C-18.48 3.67 -36.96 3.34 -56 3 C-56 2.67 -56 2.34 -56 2 C-37.52 2 -19.04 2 0 2 C0 1.34 0 0.68 0 0 Z " fill="#63676D" transform="translate(163,76)"/>
<path d="M0 0 C1.98 0 3.96 0 6 0 C6 0.33 6 0.66 6 1 C4.35 1 2.7 1 1 1 C1 5.95 1 10.9 1 16 C8.26 16 15.52 16 23 16 C22.34 14.68 21.68 13.36 21 12 C21.375 9.75 21.375 9.75 22 8 C21.34 7.67 20.68 7.34 20 7 C20 6.01 20 5.02 20 4 C23.75553562 5.48725857 25.45166641 7.53688354 27.75 10.8125 C28.67039063 12.09060547 28.67039063 12.09060547 29.609375 13.39453125 C31.11790627 16.22090866 31.29416697 17.84901918 31 21 C28.36 20.34 25.72 19.68 23 19 C23 18.34 23 17.68 23 17 C15.41 17 7.82 17 0 17 C0 11.39 0 5.78 0 0 Z " fill="#62676F" transform="translate(147,24)"/>
<path d="M0 0 C2.1519437 3.22791555 2.20086443 4.28400809 2 8 C2.66 8 3.32 8 4 8 C4 6.35 4 4.7 4 3 C4.33 3 4.66 3 5 3 C5 8.61 5 14.22 5 20 C12.26 20 19.52 20 27 20 C27 20.33 27 20.66 27 21 C16.605 21.495 16.605 21.495 6 22 C5.67 22.66 5.34 23.32 5 24 C3.35 24 1.7 24 0 24 C0 16.08 0 8.16 0 0 Z " fill="#40454E" transform="translate(142,21)"/>
<path d="M0 0 C0.9583374 0.00523682 1.9166748 0.01047363 2.90405273 0.01586914 C4.45576172 0.02070312 4.45576172 0.02070312 6.03881836 0.02563477 C7.12743164 0.03401367 8.21604492 0.04239258 9.33764648 0.05102539 C10.97636719 0.05779297 10.97636719 0.05779297 12.64819336 0.06469727 C15.35723144 0.07652713 18.06616248 0.09300996 20.77514648 0.11352539 C19.78514648 1.59852539 19.78514648 1.59852539 18.77514648 3.11352539 C19.43514648 3.77352539 20.09514648 4.43352539 20.77514648 5.11352539 C13.18514648 5.11352539 5.59514648 5.11352539 -2.22485352 5.11352539 C-2.55485352 3.79352539 -2.88485352 2.47352539 -3.22485352 1.11352539 C-2.22485352 0.11352539 -2.22485352 0.11352539 0 0 Z " fill="#434750" transform="translate(31.224853515625,58.886474609375)"/>
<path d="M0 0 C-0.99 0.33 -1.98 0.66 -3 1 C-3 2.32 -3 3.64 -3 5 C-2.01 5.66 -1.02 6.32 0 7 C-0.33 8.65 -0.66 10.3 -1 12 C-3.31 12.33 -5.62 12.66 -8 13 C-7.34 14.32 -6.68 15.64 -6 17 C-9.875 15.25 -9.875 15.25 -11 13 C-11.69093988 5.97544454 -11.69093988 5.97544454 -8.875 2 C-5.57244809 -0.29742742 -3.9354597 -0.45761159 0 0 Z " fill="#EFF1F2" transform="translate(180,72)"/>
<path d="M0 0 C9.24 0 18.48 0 28 0 C28 0.33 28 0.66 28 1 C25.69 1.66 23.38 2.32 21 3 C23.31 3.33 25.62 3.66 28 4 C28 4.33 28 4.66 28 5 C19.75 5 11.5 5 3 5 C3 4.01 3 3.02 3 2 C2.01 1.34 1.02 0.68 0 0 Z " fill="#40454D" transform="translate(66,5)"/>
<path d="M0 0 C0.66 0.33 1.32 0.66 2 1 C1.67 1.66 1.34 2.32 1 3 C17.83 3 34.66 3 52 3 C52 2.34 52 1.68 52 1 C45.4 1 38.8 1 32 1 C32 0.67 32 0.34 32 0 C39.92 0 47.84 0 56 0 C56 1.32 56 2.64 56 4 C48.6026924 4.04629419 41.20541593 4.08185426 33.80799294 4.10362434 C30.37324541 4.1140717 26.93859683 4.12824805 23.50390625 4.15087891 C19.55730362 4.17672063 15.61074137 4.18646493 11.6640625 4.1953125 C10.42757965 4.20563507 9.1910968 4.21595764 7.91714478 4.22659302 C6.77611298 4.22674408 5.63508118 4.22689514 4.45947266 4.22705078 C3.451315 4.231492 2.44315735 4.23593323 1.40444946 4.24050903 C-1 4 -1 4 -3 2 C-2.01 1.34 -1.02 0.68 0 0 Z " fill="#3F434D" transform="translate(107,79)"/>
<path d="M0 0 C1.22589844 0.15275391 1.22589844 0.15275391 2.4765625 0.30859375 C3.41628906 0.43427734 3.41628906 0.43427734 4.375 0.5625 C1.6015625 3.453125 1.6015625 3.453125 -0.4375 4.4375 C-3.56871028 6.04783671 -5.96191864 8.2625661 -8.625 10.5625 C-9.615 8.9125 -10.605 7.2625 -11.625 5.5625 C-5.51432292 -0.70898437 -5.51432292 -0.70898437 0 0 Z M-11.625 8.5625 C-9.625 11.5625 -9.625 11.5625 -10 14.75 C-10.20625 15.678125 -10.4125 16.60625 -10.625 17.5625 C-11.285 17.2325 -11.945 16.9025 -12.625 16.5625 C-12.75 10.8125 -12.75 10.8125 -11.625 8.5625 Z " fill="#494E57" transform="translate(67.625,5.4375)"/>
<path d="M0 0 C4.95 0 9.9 0 15 0 C15.33 1.32 15.66 2.64 16 4 C15 5 15 5 11.40234375 5.09765625 C9.91403133 5.0909822 8.42573568 5.07902183 6.9375 5.0625 C6.17888672 5.05798828 5.42027344 5.05347656 4.63867188 5.04882812 C2.75908129 5.0370068 0.87953101 5.01907078 -1 5 C-0.67 3.35 -0.34 1.7 0 0 Z " fill="#474B53" transform="translate(4,59)"/>
<path d="M0 0 C3.53677664 -0.32152515 5.3962104 -0.4131192 8.375 1.625 C10.43596718 4.63718279 10.38932198 6.4182378 10 10 C9.67 10.66 9.34 11.32 9 12 C6.4375 12.625 6.4375 12.625 4 13 C2.77036367 9.31109101 2.44329599 5.86300794 2 2 C1.34 2 0.68 2 0 2 C0 1.34 0 0.68 0 0 Z " fill="#F1F4F4" transform="translate(91,73)"/>
<path d="M0 0 C4.82675589 2.41337795 7.69984002 5.86062408 11 10 C10.34 11.32 9.68 12.64 9 14 C4.26672525 11.99746068 0.6063662 8.6063662 -3 5 C-2.505 4.54625 -2.01 4.0925 -1.5 3.625 C0.22609337 2.12364481 0.22609337 2.12364481 0 0 Z " fill="#F3F5F6" transform="translate(163,16)"/>
<path d="M0 0 C0 0.66 0 1.32 0 2 C-0.99 2.495 -0.99 2.495 -2 3 C-2.68931344 5.34907875 -2.68931344 5.34907875 -3.125 8.0625 C-3.29257812 8.98160156 -3.46015625 9.90070313 -3.6328125 10.84765625 C-3.75398438 11.55792969 -3.87515625 12.26820312 -4 13 C-4.33 13 -4.66 13 -5 13 C-5 10.69 -5 8.38 -5 6 C-12.92 6 -20.84 6 -29 6 C-29 5.67 -29 5.34 -29 5 C-18.605 4.505 -18.605 4.505 -8 4 C-8.66 3.34 -9.32 2.68 -10 2 C-6.5980513 -0.09350689 -3.94727588 -0.17942163 0 0 Z " fill="#6E7278" transform="translate(58,59)"/>
<path d="M0 0 C5.94 0.33 11.88 0.66 18 1 C18.33 1.99 18.66 2.98 19 4 C12.4 4.33 5.8 4.66 -1 5 C-0.67 3.35 -0.34 1.7 0 0 Z " fill="#474C54" transform="translate(36,25)"/>
<path d="M0 0 C0 0.33 0 0.66 0 1 C-1.65 1 -3.3 1 -5 1 C-5 1.66 -5 2.32 -5 3 C-4.34 3 -3.68 3 -3 3 C-1.38050989 5.57213134 -0.95591249 6.67669159 -1.375 9.75 C-1.58125 10.4925 -1.7875 11.235 -2 12 C-3.32 11.67 -4.64 11.34 -6 11 C-6.0825 10.236875 -6.165 9.47375 -6.25 8.6875 C-7.14615794 5.47626739 -8.21611025 4.70625501 -11 3 C-7.48550811 -0.37391222 -4.73940561 -0.27342725 0 0 Z " fill="#E9EAEB" transform="translate(96,72)"/>
<path d="M0 0 C0.66 0.66 1.32 1.32 2 2 C1.67 2.33 1.34 2.66 1 3 C21.295 3.495 21.295 3.495 42 4 C42 4.33 42 4.66 42 5 C26.82 5 11.64 5 -4 5 C-2.68 3.35 -1.36 1.7 0 0 Z " fill="#D6DBDF" transform="translate(189,89)"/>
<path d="M0 0 C1.1446875 0.12375 1.1446875 0.12375 2.3125 0.25 C1.3225 1.735 1.3225 1.735 0.3125 3.25 C0.9725 3.91 1.6325 4.57 2.3125 5.25 C0.3325 5.25 -1.6475 5.25 -3.6875 5.25 C-3.873125 6.4565625 -3.873125 6.4565625 -4.0625 7.6875 C-4.26875 8.533125 -4.475 9.37875 -4.6875 10.25 C-5.6775 10.745 -5.6775 10.745 -6.6875 11.25 C-9.3125 10.3125 -9.3125 10.3125 -11.6875 9.25 C-9.0625 5.375 -9.0625 5.375 -5.6875 4.25 C-5.006875 3.2290625 -5.006875 3.2290625 -4.3125 2.1875 C-2.6875 0.25 -2.6875 0.25 0 0 Z " fill="#4F545D" transform="translate(194.6875,78.75)"/>
<path d="M0 0 C1.98 0 3.96 0 6 0 C7 3 7 3 5.625 6.0625 C5.08875 7.031875 4.5525 8.00125 4 9 C3.67 9.66 3.34 10.32 3 11 C0.9375 9.4375 0.9375 9.4375 -1 7 C-0.75 3.25 -0.75 3.25 0 0 Z " fill="#F0F2F3" transform="translate(84,76)"/>
<path d="M0 0 C0.33 0 0.66 0 1 0 C1 3.96 1 7.92 1 12 C-0.65 12.33 -2.3 12.66 -4 13 C-5 12 -5 12 -5.09765625 10.15234375 C-5.06510417 8.1015625 -5.03255208 6.05078125 -5 4 C-3.68 4 -2.36 4 -1 4 C-0.67 2.68 -0.34 1.36 0 0 Z " fill="#4C5158" transform="translate(58,41)"/>
<path d="M0 0 C-0.33 0.99 -0.66 1.98 -1 3 C-7.93 3 -14.86 3 -22 3 C-22 2.34 -22 1.68 -22 1 C-19.6460153 0.83034345 -17.29186616 0.6642065 -14.9375 0.5 C-13.62652344 0.4071875 -12.31554687 0.314375 -10.96484375 0.21875 C-7.29924005 0.0165098 -3.67009048 -0.0381804 0 0 Z " fill="#5C6067" transform="translate(58,28)"/>
<path d="M0 0 C3 4.5 3 4.5 3 8 C1.02 8.33 -0.96 8.66 -3 9 C-3 8.34 -3 7.68 -3 7 C-6.3 7 -9.6 7 -13 7 C-13 6.67 -13 6.34 -13 6 C-9.37 6 -5.74 6 -2 6 C-1.34 4.02 -0.68 2.04 0 0 Z " fill="#535960" transform="translate(80,72)"/>
<path d="M0 0 C0.66 0 1.32 0 2 0 C3.34771696 2.21976911 4.04398726 3.50147776 3.8125 6.125 C3 8 3 8 0 10 C-0.73343428 13.06556598 -0.73343428 13.06556598 -1 16 C-1.33 16 -1.66 16 -2 16 C-2.05386629 13.87527424 -2.09273071 11.75016348 -2.125 9.625 C-2.14820313 8.44164062 -2.17140625 7.25828125 -2.1953125 6.0390625 C-2 3 -2 3 0 1 C0 0.67 0 0.34 0 0 Z " fill="#5D636A" transform="translate(210,54)"/>
<path d="M0 0 C0.99 0 1.98 0 3 0 C3.08131463 1.43655854 3.13933559 2.8744483 3.1875 4.3125 C3.22230469 5.11300781 3.25710937 5.91351563 3.29296875 6.73828125 C2.93662641 9.48924414 2.15556111 10.32224589 0 12 C-0.33 12 -0.66 12 -1 12 C-1.08159574 7.83861737 -0.98248524 4.0527516 0 0 Z " fill="#40474D" transform="translate(55,61)"/>
<path d="M0 0 C2.64 0 5.28 0 8 0 C8.33 0.99 8.66 1.98 9 3 C7 5 7 5 5.0546875 5.1953125 C3.03645833 5.13020833 1.01822917 5.06510417 -1 5 C-0.67 3.35 -0.34 1.7 0 0 Z " fill="#424650" transform="translate(174,67)"/>
<path d="M0 0 C1.12329712 0.07069702 1.12329712 0.07069702 2.26928711 0.14282227 C3.07817383 0.19116211 3.88706055 0.23950195 4.72045898 0.28930664 C5.99566406 0.37341797 5.99566406 0.37341797 7.29663086 0.45922852 C8.57763672 0.53753906 8.57763672 0.53753906 9.88452148 0.61743164 C12.00135081 0.74751612 14.1177833 0.88402822 16.23413086 1.02172852 C16.23413086 1.35172852 16.23413086 1.68172852 16.23413086 2.02172852 C14.6447168 2.07780273 14.6447168 2.07780273 13.02319336 2.13500977 C11.63513661 2.2006611 10.24711737 2.26710873 8.85913086 2.33422852 C8.16045898 2.35678711 7.46178711 2.3793457 6.74194336 2.40258789 C4.46124145 2.49157148 4.46124145 2.49157148 1.23413086 3.02172852 C0.24413086 4.50672852 0.24413086 4.50672852 -0.76586914 6.02172852 C-1.42586914 6.02172852 -2.08586914 6.02172852 -2.76586914 6.02172852 C-2.80859014 4.35560946 -2.80650746 2.68789967 -2.76586914 1.02172852 C-1.76586914 0.02172852 -1.76586914 0.02172852 0 0 Z " fill="#E1E2E5" transform="translate(2.765869140625,56.978271484375)"/>
<path d="M0 0 C0.78375 0.33 1.5675 0.66 2.375 1 C4.84332497 2.11866511 4.84332497 2.11866511 7 2 C7 2.66 7 3.32 7 4 C7.99 4.33 8.98 4.66 10 5 C9.67 6.32 9.34 7.64 9 9 C7.87105124 8.06725891 6.74699124 7.12859878 5.625 6.1875 C4.99851563 5.66542969 4.37203125 5.14335938 3.7265625 4.60546875 C2 3 2 3 0 0 Z " fill="#434851" transform="translate(160,27)"/>
<path d="M0 0 C-3.32307692 4.8 -3.32307692 4.8 -6.75 5.8125 C-7.4925 5.874375 -8.235 5.93625 -9 6 C-9 5.34 -9 4.68 -9 4 C-9.66 3.67 -10.32 3.34 -11 3 C-7.48550811 -0.37391222 -4.73940561 -0.27342725 0 0 Z " fill="#5D626A" transform="translate(180,66)"/>
<path d="M0 0 C2.0625 0.4375 2.0625 0.4375 4 1 C3.67 2.65 3.34 4.3 3 6 C1.68 5.67 0.36 5.34 -1 5 C-1 1 -1 1 0 0 Z " fill="#5B5C63" transform="translate(91,78)"/>
<path d="M0 0 C2.00720923 0.28674418 4.0085944 0.61866701 6 1 C6.33 2.32 6.66 3.64 7 5 C4.69 5 2.38 5 0 5 C-0.5625 3.0625 -0.5625 3.0625 -1 1 C-0.67 0.67 -0.34 0.34 0 0 Z " fill="#4E545B" transform="translate(17,40)"/>
<path d="M0 0 C2.31 0.66 4.62 1.32 7 2 C6.1875 3.9375 6.1875 3.9375 5 6 C4.01 6.33 3.02 6.66 2 7 C0.4375 5.1875 0.4375 5.1875 -1 3 C-0.67 2.01 -0.34 1.02 0 0 Z " fill="#4C5259" transform="translate(157,7)"/>
<path d="M0 0 C0.66 0.66 1.32 1.32 2 2 C1.34 2 0.68 2 0 2 C0 2.66 0 3.32 0 4 C0.99 4.33 1.98 4.66 3 5 C2.67 5.66 2.34 6.32 2 7 C0.6078125 6.505 0.6078125 6.505 -0.8125 6 C-3.92029291 4.85032996 -3.92029291 4.85032996 -7 5 C-7 4.34 -7 3.68 -7 3 C-4.69 2.01 -2.38 1.02 0 0 Z " fill="#4E535E" transform="translate(97,88)"/>
<path d="M0 0 C2.5 1.6875 2.5 1.6875 5 4 C5.3125 6.75 5.3125 6.75 5 9 C3.68 8.34 2.36 7.68 1 7 C1 5.68 1 4.36 1 3 C0.34 2.67 -0.32 2.34 -1 2 C-0.67 1.34 -0.34 0.68 0 0 Z " fill="#424750" transform="translate(186,30)"/>
<path d="M0 0 C1.65 0.33 3.3 0.66 5 1 C4.67 2.32 4.34 3.64 4 5 C2.35 4.67 0.7 4.34 -1 4 C-0.67 2.68 -0.34 1.36 0 0 Z " fill="#565A5E" transform="translate(26,94)"/>
<path d="M0 0 C1.98 0.495 1.98 0.495 4 1 C3.67 2.65 3.34 4.3 3 6 C1.68 5.67 0.36 5.34 -1 5 C-0.67 3.35 -0.34 1.7 0 0 Z " fill="#54565E" transform="translate(176,78)"/>
<path d="M0 0 C0.33 0 0.66 0 1 0 C1 3.96 1 7.92 1 12 C-0.65 12.33 -2.3 12.66 -4 13 C-3.67 12.01 -3.34 11.02 -3 10 C-2.34 10 -1.68 10 -1 10 C-0.67 6.7 -0.34 3.4 0 0 Z " fill="#65686E" transform="translate(58,41)"/>
<path d="M0 0 C3 0 6 0 9 0 C8.01 1.485 8.01 1.485 7 3 C6.34 3 5.68 3 5 3 C4.67 3.66 4.34 4.32 4 5 C2.35 4.01 0.7 3.02 -1 2 C-0.67 1.34 -0.34 0.68 0 0 Z " fill="#4E545B" transform="translate(84,68)"/>
<path d="M0 0 C0.66 0.99 1.32 1.98 2 3 C2.99 3.33 3.98 3.66 5 4 C5.6875 6.0625 5.6875 6.0625 6 8 C3 8 3 8 1.61328125 6.6875 C0.40885417 5.125 -0.79557292 3.5625 -2 2 C-1.34 2 -0.68 2 0 2 C0 1.34 0 0.68 0 0 Z " fill="#545860" transform="translate(182,29)"/>
<path d="M0 0 C1.32 0.66 2.64 1.32 4 2 C3.01 2.33 2.02 2.66 1 3 C3.475 3.99 3.475 3.99 6 5 C5.01 5.99 4.02 6.98 3 8 C0.9375 6.25 0.9375 6.25 -1 4 C-0.75 1.75 -0.75 1.75 0 0 Z " fill="#42474D" transform="translate(166,12)"/>
<path d="M0 0 C-0.33 0.99 -0.66 1.98 -1 3 C-2.65 3.33 -4.3 3.66 -6 4 C-6.33 2.68 -6.66 1.36 -7 0 C-4.3333581 -1.33332095 -2.83319697 -0.67102033 0 0 Z " fill="#4A5059" transform="translate(207,77)"/>
<path d="M0 0 C0.99 0.66 1.98 1.32 3 2 C1.37660195 3.70884005 -0.29319053 5.37446717 -2 7 C-2.66 7 -3.32 7 -4 7 C-2.92598892 4.08482708 -2.22189824 2.22189824 0 0 Z " fill="#4F565A" transform="translate(168,69)"/>
<path d="M0 0 C2.29013653 3.4352048 2.17842973 4.985331 2 9 C1.67 7.68 1.34 6.36 1 5 C0.34 5 -0.32 5 -1 5 C-0.67 3.35 -0.34 1.7 0 0 Z M-3 2 C-1.875 3.75 -1.875 3.75 -1 6 C-1.875 8.25 -1.875 8.25 -3 10 C-3 7.36 -3 4.72 -3 2 Z " fill="#3C434A" transform="translate(212,59)"/>
<path d="M0 0 C0.99 0 1.98 0 3 0 C1.84578536 3.46264391 1.16748634 4.28784522 -2 6 C-5.25 5.6875 -5.25 5.6875 -8 5 C-5.66785852 3.79371992 -3.50357861 2.8345262 -1 2 C-0.67 1.34 -0.34 0.68 0 0 Z " fill="#DCDFE0" transform="translate(34,95)"/>
<path d="M0 0 C0.99 0.66 1.98 1.32 3 2 C2.67 3.32 2.34 4.64 2 6 C1.34 6 0.68 6 0 6 C-0.33 6.66 -0.66 7.32 -1 8 C-1.93065133 5.39417629 -2.14917407 4.35801776 -1.0625 1.75 C-0.711875 1.1725 -0.36125 0.595 0 0 Z " fill="#43484F" transform="translate(187,71)"/>
<path d="M0 0 C1.98 0.99 1.98 0.99 4 2 C3.01 3.485 3.01 3.485 2 5 C1.34 4.67 0.68 4.34 0 4 C0 2.68 0 1.36 0 0 Z M-4 3 C-2.68 3.33 -1.36 3.66 0 4 C-0.33 4.99 -0.66 5.98 -1 7 C-1.99 5.68 -2.98 4.36 -4 3 Z " fill="#5D6169" transform="translate(191,35)"/>
<path d="M0 0 C1.32 0.66 2.64 1.32 4 2 C4 2.66 4 3.32 4 4 C2.35 4.33 0.7 4.66 -1 5 C-1 1 -1 1 0 0 Z " fill="#FAFCFA" transform="translate(96,81)"/>
<path d="M0 0 C-2.63904371 1.41377341 -5.07120629 2.37240135 -8 3 C-8 2.01 -8 1.02 -8 0 C-4.71023192 -1.09658936 -3.28696233 -0.79953138 0 0 Z " fill="#40444C" transform="translate(177,90)"/>
<path d="M0 0 C0.33 0 0.66 0 1 0 C1 2.31 1 4.62 1 7 C0.01 7 -0.98 7 -2 7 C-2.66 7.99 -3.32 8.98 -4 10 C-4 8.35 -4 6.7 -4 5 C-2.68 5 -1.36 5 0 5 C0 3.35 0 1.7 0 0 Z " fill="#5E6269" transform="translate(168,78)"/>
<path d="M0 0 C0.66 0 1.32 0 2 0 C1.690625 0.680625 1.38125 1.36125 1.0625 2.0625 C-0.13370649 5.36965912 -0.59005397 8.51545878 -1 12 C-1.33 12 -1.66 12 -2 12 C-2.28571429 3.42857143 -2.28571429 3.42857143 0 0 Z " fill="#5D6269" transform="translate(55,12)"/>
<path d="M0 0 C0.144375 0.61875 0.28875 1.2375 0.4375 1.875 C0.93152225 4.03258322 0.93152225 4.03258322 2 6 C0.02 6.33 -1.96 6.66 -4 7 C-2.68 4.69 -1.36 2.38 0 0 Z " fill="#E8EBEE" transform="translate(105,86)"/>
<path d="M0 0 C1.32 0 2.64 0 4 0 C4 1.65 4 3.3 4 5 C3.67 4.34 3.34 3.68 3 3 C2.34 3 1.68 3 1 3 C0.67 3.66 0.34 4.32 0 5 C0 4.34 0 3.68 0 3 C-0.66 2.67 -1.32 2.34 -2 2 C-1.34 1.34 -0.68 0.68 0 0 Z " fill="#3F454E" transform="translate(54,42)"/>
</svg>
